# xmcd
#
# Track frame offsets: 
#        150
#        16010
#        42890
#        62705
#        91165
#        127537
#        148890
#        176057
#        196912
#        220210
#        259522
#        289725
#
# Disc length: 4299 seconds
#
# Revision: 7
# Processed by: cddbd v1.5.2PL0 Copyright (c) Steve Scherf et al.
# Submitted via: ExactAudioCopyFreeDBPlugin 1.0
#
DISCID=a210c90c
DTITLE=MIGHTY SAM McCLAIN - Sledgehammer Soul and Down Home Blues
DYEAR=1996
DGENRE=Blues
TTITLE0=Sledgehammer Soul and Down Home Blues
TTITLE1=Where You Been So Long
TTITLE2=Trying To Find Myself
TTITLE3=Things Ain't What They Used To Be
TTITLE4=When The Hurt Is Over (Maybe Love Will Flow)
TTITLE5=Pray
TTITLE6=They Call Me ''Mighty''
TTITLE7=Dancin' To The Music Of Love
TTITLE8=Hey Miss Bea
TTITLE9=If You Could See
TTITLE10=Bridge Of Faith
TTITLE11=Don't Write Me Off
EXTD=YEAR: 1996
EXTT0=
EXTT1=
EXTT2=
EXTT3=
EXTT4=
EXTT5=
EXTT6=
EXTT7=
EXTT8=
EXTT9=
EXTT10=
EXTT11=
PLAYORDER=
